<?xml version="1.0" encoding="UTF-8"?>
<svg xmlns="http://www.w3.org/2000/svg" xmlns:xlink="http://www.w3.org/1999/xlink" width="375pt" height="374.999991pt" viewBox="0 0 375 374.999991" version="1.2">
<defs>
<clipPath id="clip1">
  <path d="M 176 24.148438 L 195 24.148438 L 195 72 L 176 72 Z M 176 24.148438 "/>
</clipPath>
<clipPath id="clip2">
  <path d="M 184.949219 292.058594 L 228.363281 292.058594 L 228.363281 351.148438 L 184.949219 351.148438 Z M 184.949219 292.058594 "/>
</clipPath>
<clipPath id="clip3">
  <path d="M 142.605469 292.058594 L 186.554688 292.058594 L 186.554688 351.148438 L 142.605469 351.148438 Z M 142.605469 292.058594 "/>
</clipPath>
<clipPath id="clip4">
  <path d="M 112.589844 150.574219 L 263.789062 150.574219 L 263.789062 301.742188 L 112.589844 301.742188 Z M 112.589844 150.574219 "/>
</clipPath>
</defs>
<g id="surface1">
<path style=" stroke:none;fill-rule:nonzero;fill:rgb(46.669006%,38.819885%,56.858826%);fill-opacity:1;" d="M 187.5 0 C 184.429688 0 181.363281 0.0742188 178.300781 0.226562 C 175.234375 0.375 172.175781 0.601562 169.121094 0.902344 C 166.066406 1.203125 163.023438 1.578125 159.988281 2.03125 C 156.953125 2.480469 153.929688 3.003906 150.921875 3.601562 C 147.910156 4.203125 144.917969 4.875 141.941406 5.617188 C 138.964844 6.363281 136.007812 7.183594 133.070312 8.074219 C 130.136719 8.964844 127.222656 9.925781 124.332031 10.960938 C 121.445312 11.996094 118.582031 13.097656 115.746094 14.273438 C 112.910156 15.445312 110.105469 16.691406 107.332031 18.003906 C 104.558594 19.3125 101.820312 20.691406 99.113281 22.140625 C 96.40625 23.585938 93.738281 25.097656 91.105469 26.675781 C 88.472656 28.253906 85.882812 29.894531 83.332031 31.597656 C 80.777344 33.304688 78.269531 35.070312 75.804688 36.898438 C 73.339844 38.726562 70.921875 40.613281 68.550781 42.558594 C 66.179688 44.507812 63.855469 46.511719 61.582031 48.570312 C 59.308594 50.632812 57.085938 52.746094 54.917969 54.917969 C 52.746094 57.085938 50.632812 59.308594 48.570312 61.582031 C 46.511719 63.855469 44.507812 66.179688 42.558594 68.550781 C 40.613281 70.921875 38.726562 73.339844 36.898438 75.804688 C 35.070312 78.269531 33.304688 80.777344 31.597656 83.332031 C 29.894531 85.882812 28.253906 88.472656 26.675781 91.105469 C 25.097656 93.738281 23.585938 96.40625 22.140625 99.113281 C 20.691406 101.820312 19.3125 104.558594 18.003906 107.332031 C 16.691406 110.105469 15.445312 112.910156 14.273438 115.746094 C 13.097656 118.582031 11.996094 121.445312 10.960938 124.332031 C 9.925781 127.222656 8.964844 130.136719 8.074219 133.070312 C 7.183594 136.007812 6.363281 138.964844 5.621094 141.941406 C 4.875 144.917969 4.203125 147.910156 3.601562 150.921875 C 3.003906 153.929688 2.480469 156.953125 2.03125 159.988281 C 1.578125 163.023438 1.203125 166.066406 0.902344 169.121094 C 0.601562 172.175781 0.375 175.234375 0.226562 178.300781 C 0.0742188 181.363281 0 184.429688 0 187.5 C 0 190.570312 0.0742188 193.636719 0.226562 196.699219 C 0.375 199.765625 0.601562 202.824219 0.902344 205.878906 C 1.203125 208.933594 1.578125 211.976562 2.03125 215.011719 C 2.480469 218.046875 3.003906 221.070312 3.601562 224.078125 C 4.203125 227.089844 4.875 230.082031 5.621094 233.058594 C 6.363281 236.035156 7.183594 238.992188 8.074219 241.929688 C 8.964844 244.863281 9.925781 247.777344 10.960938 250.667969 C 11.996094 253.554688 13.097656 256.417969 14.273438 259.253906 C 15.445312 262.089844 16.691406 264.890625 18.003906 267.667969 C 19.3125 270.441406 20.691406 273.179688 22.140625 275.886719 C 23.585938 278.59375 25.097656 281.261719 26.675781 283.894531 C 28.253906 286.527344 29.894531 289.117188 31.597656 291.667969 C 33.304688 294.222656 35.070312 296.730469 36.898438 299.195312 C 38.726562 301.660156 40.613281 304.078125 42.558594 306.449219 C 44.507812 308.820312 46.511719 311.144531 48.570312 313.417969 C 50.632812 315.691406 52.746094 317.914062 54.917969 320.082031 C 57.085938 322.253906 59.308594 324.367188 61.582031 326.429688 C 63.855469 328.488281 66.179688 330.492188 68.550781 332.4375 C 70.921875 334.386719 73.339844 336.273438 75.804688 338.101562 C 78.269531 339.929688 80.777344 341.695312 83.332031 343.402344 C 85.882812 345.105469 88.472656 346.746094 91.105469 348.324219 C 93.738281 349.902344 96.40625 351.414062 99.113281 352.859375 C 101.820312 354.308594 104.558594 355.6875 107.332031 356.996094 C 110.105469 358.308594 112.910156 359.554688 115.746094 360.726562 C 118.582031 361.902344 121.445312 363.003906 124.332031 364.039062 C 127.222656 365.074219 130.136719 366.035156 133.070312 366.925781 C 136.007812 367.816406 138.964844 368.636719 141.941406 369.378906 C 144.917969 370.125 147.910156 370.796875 150.921875 371.398438 C 153.929688 371.996094 156.953125 372.519531 159.988281 372.96875 C 163.023438 373.421875 166.066406 373.796875 169.121094 374.097656 C 172.175781 374.398438 175.234375 374.625 178.300781 374.773438 C 181.363281 374.925781 184.429688 375 187.5 375 C 190.570312 375 193.636719 374.925781 196.699219 374.773438 C 199.765625 374.625 202.824219 374.398438 205.878906 374.097656 C 208.933594 373.796875 211.976562 373.421875 215.011719 372.96875 C 218.046875 372.519531 221.070312 371.996094 224.078125 371.398438 C 227.089844 370.796875 230.082031 370.125 233.058594 369.378906 C 236.035156 368.636719 238.992188 367.816406 241.929688 366.925781 C 244.863281 366.035156 247.777344 365.074219 250.667969 364.039062 C 253.554688 363.003906 256.417969 361.902344 259.253906 360.726562 C 262.089844 359.554688 264.890625 358.308594 267.667969 356.996094 C 270.441406 355.6875 273.179688 354.308594 275.886719 352.859375 C 278.59375 351.414062 281.261719 349.902344 283.894531 348.324219 C 286.527344 346.746094 289.117188 345.105469 291.667969 343.402344 C 294.222656 341.695312 296.730469 339.929688 299.195312 338.101562 C 301.660156 336.273438 304.078125 334.386719 306.449219 332.4375 C 308.820312 330.492188 311.144531 328.488281 313.417969 326.429688 C 315.691406 324.367188 317.914062 322.253906 320.082031 320.082031 C 322.253906 317.914062 324.367188 315.691406 326.429688 313.417969 C 328.488281 311.144531 330.492188 308.820312 332.4375 306.449219 C 334.386719 304.078125 336.273438 301.660156 338.101562 299.195312 C 339.929688 296.730469 341.695312 294.222656 343.402344 291.667969 C 345.105469 289.117188 346.746094 286.527344 348.324219 283.894531 C 349.902344 281.261719 351.414062 278.59375 352.859375 275.886719 C 354.308594 273.179688 355.6875 270.441406 356.996094 267.667969 C 358.308594 264.890625 359.554688 262.089844 360.726562 259.253906 C 361.902344 256.417969 363.003906 253.554688 364.039062 250.667969 C 365.074219 247.777344 366.035156 244.863281 366.925781 241.929688 C 367.816406 238.992188 368.636719 236.035156 369.378906 233.058594 C 370.125 230.082031 370.796875 227.089844 371.398438 224.078125 C 371.996094 221.070312 372.519531 218.046875 372.96875 215.011719 C 373.421875 211.976562 373.796875 208.933594 374.097656 205.878906 C 374.398438 202.824219 374.625 199.765625 374.773438 196.699219 C 374.925781 193.636719 375 190.570312 375 187.5 C 375 184.429688 374.925781 181.363281 374.773438 178.300781 C 374.625 175.234375 374.398438 172.175781 374.097656 169.121094 C 373.796875 166.066406 373.421875 163.023438 372.96875 159.988281 C 372.519531 156.953125 371.996094 153.929688 371.398438 150.921875 C 370.796875 147.910156 370.125 144.917969 369.378906 141.941406 C 368.636719 138.964844 367.816406 136.007812 366.925781 133.070312 C 366.035156 130.136719 365.074219 127.222656 364.039062 124.332031 C 363.003906 121.445312 361.902344 118.582031 360.726562 115.746094 C 359.554688 112.910156 358.308594 110.105469 356.996094 107.332031 C 355.6875 104.558594 354.308594 101.820312 352.859375 99.113281 C 351.414062 96.40625 349.902344 93.738281 348.324219 91.105469 C 346.746094 88.472656 345.105469 85.882812 343.402344 83.332031 C 341.695312 80.777344 339.929688 78.269531 338.101562 75.804688 C 336.273438 73.339844 334.386719 70.921875 332.4375 68.550781 C 330.492188 66.179688 328.488281 63.855469 326.429688 61.582031 C 324.367188 59.308594 322.253906 57.085938 320.082031 54.917969 C 317.914062 52.746094 315.691406 50.632812 313.417969 48.570312 C 311.144531 46.511719 308.820312 44.507812 306.449219 42.558594 C 304.078125 40.613281 301.660156 38.726562 299.195312 36.898438 C 296.730469 35.070312 294.222656 33.304688 291.667969 31.597656 C 289.117188 29.894531 286.527344 28.253906 283.894531 26.675781 C 281.261719 25.097656 278.59375 23.585938 275.886719 22.140625 C 273.179688 20.691406 270.441406 19.3125 267.667969 18.003906 C 264.890625 16.691406 262.089844 15.445312 259.253906 14.273438 C 256.417969 13.097656 253.554688 11.996094 250.667969 10.960938 C 247.777344 9.925781 244.863281 8.964844 241.929688 8.074219 C 238.992188 7.183594 236.035156 6.363281 233.058594 5.617188 C 230.082031 4.875 227.089844 4.203125 224.078125 3.601562 C 221.070312 3.003906 218.046875 2.480469 215.011719 2.03125 C 211.976562 1.578125 208.933594 1.203125 205.878906 0.902344 C 202.824219 0.601562 199.765625 0.375 196.699219 0.226562 C 193.636719 0.0742188 190.570312 0 187.5 0 Z M 187.5 0 "/>
<path style=" stroke:none;fill-rule:nonzero;fill:rgb(89.408875%,90.19928%,91.369629%);fill-opacity:1;" d="M 253.9375 125.972656 C 253.9375 162.144531 224.726562 186.863281 188.6875 186.863281 C 152.652344 186.863281 123.441406 162.144531 123.441406 125.972656 C 123.441406 89.804688 152.652344 60.484375 188.6875 60.484375 C 224.726562 60.484375 253.9375 89.804688 253.9375 125.972656 "/>
<path style=" stroke:none;fill-rule:nonzero;fill:rgb(94.898987%,95.289612%,96.078491%);fill-opacity:1;" d="M 245.75 120.574219 C 245.75 152.253906 220.167969 157.015625 188.605469 157.015625 C 157.042969 157.015625 131.453125 152.253906 131.453125 120.574219 C 131.453125 88.894531 157.042969 63.214844 188.601562 63.214844 C 220.164062 63.214844 245.75 88.894531 245.75 120.574219 "/>
<path style=" stroke:none;fill-rule:nonzero;fill:rgb(100%,100%,100%);fill-opacity:1;" d="M 212.449219 80.015625 C 212.449219 88.8125 202.226562 90.132812 189.621094 90.132812 C 177.019531 90.132812 166.796875 88.8125 166.796875 80.015625 C 166.796875 71.222656 177.015625 64.09375 189.621094 64.09375 C 202.226562 64.09375 212.449219 71.222656 212.449219 80.015625 "/>
<path style=" stroke:none;fill-rule:nonzero;fill:rgb(61.569214%,63.529968%,66.268921%);fill-opacity:1;" d="M 121.910156 125.972656 C 121.910156 161.5625 150.617188 188.398438 188.6875 188.398438 C 226.757812 188.398438 255.46875 161.5625 255.46875 125.972656 C 255.46875 89.015625 225.511719 58.949219 188.6875 58.949219 C 151.867188 58.949219 121.910156 89.015625 121.910156 125.972656 Z M 124.96875 125.972656 C 124.96875 90.710938 153.554688 62.019531 188.6875 62.019531 C 223.824219 62.019531 252.410156 90.710938 252.410156 125.972656 C 252.410156 159.8125 225.015625 185.328125 188.6875 185.328125 C 152.363281 185.328125 124.96875 159.8125 124.96875 125.972656 "/>
<path style=" stroke:none;fill-rule:nonzero;fill:rgb(100%,100%,100%);fill-opacity:1;" d="M 186.648438 70.203125 C 186.648438 70.203125 193.019531 55.878906 184.609375 41.808594 C 176.199219 27.738281 175.945312 25.179688 182.828125 25.179688 C 189.699219 25.179688 198.605469 44.566406 190 70.09375 C 189.988281 70.132812 189.976562 70.167969 189.964844 70.203125 C 186.777344 77.625 184.738281 73.019531 186.648438 70.203125 "/>
<g clip-path="url(#clip1)" clip-rule="nonzero">
<path style=" stroke:none;fill-rule:nonzero;fill:rgb(61.569214%,63.529968%,66.268921%);fill-opacity:1;" d="M 187.492188 70.78125 L 187.542969 70.707031 L 187.582031 70.621094 C 187.742188 70.261719 190.011719 65.023438 190.011719 57.816406 C 190.011719 52.910156 188.960938 47.097656 185.484375 41.28125 C 182.289062 35.941406 178.96875 30.164062 178.96875 27.773438 C 178.96875 27.484375 179.019531 27.246094 179.121094 27.0625 C 179.449219 26.484375 180.660156 26.203125 182.828125 26.203125 C 184.265625 26.203125 185.949219 27.410156 187.457031 29.515625 C 190.382812 33.613281 192.492188 40.71875 192.492188 49.515625 C 192.492188 55.601562 191.480469 62.5 189.035156 69.765625 C 188.671875 70.617188 188.863281 71.738281 189.265625 71.738281 C 189.636719 71.738281 190.722656 71.015625 190.898438 70.609375 C 197.214844 51.875 194.539062 35.914062 189.113281 28.324219 C 187.195312 25.636719 184.960938 24.15625 182.828125 24.15625 C 180.535156 24.15625 178.289062 24.386719 177.351562 26.054688 C 176.089844 28.285156 177.519531 31.933594 183.738281 42.335938 C 191.765625 55.761719 185.78125 69.648438 185.71875 69.789062 L 185.808594 69.628906 C 185.378906 70.265625 185.675781 71.738281 186.015625 71.738281 C 186.359375 71.738281 187.277344 71.097656 187.492188 70.78125 "/>
</g>
<path style=" stroke:none;fill-rule:nonzero;fill:rgb(95.689392%,76.858521%,36.859131%);fill-opacity:1;" d="M 202.453125 298.402344 C 202.453125 298.402344 203.300781 326.203125 201.773438 330.296875 C 200.242188 334.390625 185.972656 345.984375 185.972656 348.714844 C 185.972656 351.445312 226.921875 350.078125 226.921875 350.078125 C 226.921875 350.078125 229.640625 349.910156 219.617188 340.1875 C 209.589844 330.464844 209.25 329.269531 209.078125 317.84375 C 208.910156 306.417969 209.078125 295.671875 209.078125 295.671875 C 209.078125 295.671875 202.28125 288.851562 202.453125 298.402344 "/>
<g clip-path="url(#clip2)" clip-rule="nonzero">
<path style=" stroke:none;fill-rule:nonzero;fill:rgb(75.689697%,41.958618%,13.328552%);fill-opacity:1;" d="M 203.675781 292.515625 C 202.105469 293.1875 201.375 295.117188 201.433594 298.421875 L 201.433594 298.433594 C 201.667969 306.109375 202.015625 326.734375 200.820312 329.9375 C 200.144531 331.746094 196.21875 335.660156 192.753906 339.117188 C 187.328125 344.53125 184.953125 347.078125 184.953125 348.714844 L 185.386719 349.699219 C 187.960938 352.203125 217.855469 351.40625 226.953125 351.101562 C 227.390625 351.074219 227.945312 350.820312 228.179688 350.183594 C 228.453125 349.441406 229.019531 347.882812 220.324219 339.453125 C 210.273438 329.710938 210.261719 328.8125 210.097656 317.828125 L 210.097656 295.265625 L 209.800781 294.949219 C 209.4375 294.589844 206.199219 291.441406 203.675781 292.515625 Z M 203.46875 298.054688 C 203.46875 295.070312 204.230469 294.503906 204.472656 294.398438 C 205.304688 294.046875 206.988281 295.171875 208.058594 296.160156 C 208.058594 297.125 208.058594 317.859375 208.058594 317.859375 C 208.230469 329.328125 208.59375 330.925781 218.90625 340.921875 C 224.089844 345.949219 225.601562 348.175781 226.046875 349.082031 C 208.804688 349.628906 190.355469 349.503906 187.195312 348.363281 C 187.800781 346.980469 191.558594 343.195312 194.191406 340.570312 C 198.152344 336.617188 201.894531 332.878906 202.726562 330.65625 C 203.511719 328.5625 203.714844 321.128906 203.714844 313.898438 C 203.714844 306.761719 203.515625 299.820312 203.472656 298.378906 C 203.46875 298.269531 203.46875 298.160156 203.46875 298.054688 "/>
</g>
<path style=" stroke:none;fill-rule:nonzero;fill:rgb(95.689392%,76.858521%,36.859131%);fill-opacity:1;" d="M 168.808594 298.402344 C 168.808594 298.402344 167.957031 326.203125 169.488281 330.296875 C 171.015625 334.390625 185.289062 345.984375 185.289062 348.714844 C 185.289062 351.445312 144.339844 350.078125 144.339844 350.078125 C 144.339844 350.078125 141.621094 349.910156 151.644531 340.1875 C 161.671875 330.464844 162.011719 329.269531 162.179688 317.84375 C 162.351562 306.417969 162.179688 295.671875 162.179688 295.671875 C 162.179688 295.671875 168.976562 288.851562 168.808594 298.402344 "/>
<g clip-path="url(#clip3)" clip-rule="nonzero">
<path style=" stroke:none;fill-rule:nonzero;fill:rgb(75.689697%,41.958618%,13.328552%);fill-opacity:1;" d="M 161.460938 294.949219 L 161.160156 295.25 L 161.160156 317.828125 C 161 328.8125 160.984375 329.710938 150.9375 339.453125 C 142.238281 347.886719 142.808594 349.441406 143.082031 350.183594 C 143.3125 350.820312 143.871094 351.074219 144.277344 351.101562 C 153.40625 351.40625 183.300781 352.203125 185.875 349.699219 L 186.308594 348.714844 C 186.308594 347.078125 183.933594 344.53125 178.507812 339.117188 C 175.042969 335.660156 171.117188 331.746094 170.441406 329.9375 C 169.246094 326.734375 169.59375 306.109375 169.828125 298.433594 L 169.828125 298.421875 C 169.886719 295.117188 169.152344 293.1875 167.585938 292.515625 C 165.058594 291.441406 161.820312 294.589844 161.460938 294.949219 Z M 166.789062 294.398438 C 167.027344 294.503906 167.792969 295.070312 167.792969 298.054688 C 167.792969 298.160156 167.789062 298.269531 167.789062 298.378906 C 167.742188 299.820312 167.546875 306.761719 167.546875 313.898438 C 167.546875 321.128906 167.75 328.5625 168.535156 330.65625 C 169.363281 332.878906 173.109375 336.617188 177.070312 340.570312 C 179.695312 343.191406 183.445312 346.960938 184.058594 348.367188 C 180.882812 349.503906 162.464844 349.628906 145.214844 349.078125 C 145.664062 348.175781 147.175781 345.949219 152.355469 340.921875 C 162.667969 330.925781 163.03125 329.328125 163.199219 317.859375 C 163.199219 317.859375 163.199219 297.125 163.199219 296.160156 C 164.273438 295.171875 165.953125 294.046875 166.789062 294.398438 "/>
</g>
<path style=" stroke:none;fill-rule:nonzero;fill:rgb(94.898987%,95.289612%,96.078491%);fill-opacity:1;" d="M 167.023438 175.863281 C 167.023438 175.863281 151.222656 177.394531 137.710938 190.699219 C 137.710938 190.699219 125.734375 190.1875 118.34375 208.09375 C 110.949219 226.003906 114.773438 242.886719 118.597656 257.726562 C 122.421875 272.566406 137.542969 281.175781 144.507812 278.449219 C 144.507812 278.449219 150.710938 284.203125 156.0625 285.613281 C 156.0625 285.613281 155.171875 294.5625 160.652344 297.632812 C 166.132812 300.703125 173.652344 298.148438 174.925781 291.367188 C 174.925781 291.367188 182.445312 294.308594 194.296875 292.390625 C 194.296875 292.390625 195.484375 298.65625 201.175781 299.679688 C 206.871094 300.703125 213.414062 300.109375 214.519531 290.558594 C 214.519531 290.558594 223.351562 287.019531 226.414062 283.308594 C 226.414062 283.308594 235.589844 286.296875 248.671875 272.820312 C 261.753906 259.34375 262.945312 247.40625 262.09375 226.597656 C 261.242188 205.792969 251.21875 195.730469 242.210938 196.410156 C 242.210938 196.410156 229.640625 176.289062 212.136719 176.289062 C 212.136719 176.289062 210.097656 156.503906 199.5625 161.621094 C 199.5625 161.621094 199.390625 155.820312 193.445312 152.921875 C 187.5 150.023438 180.019531 158.039062 178.664062 163.496094 C 178.664062 163.496094 169.660156 162.304688 167.023438 175.863281 "/>
<path style=" stroke:none;fill-rule:nonzero;fill:rgb(83.529663%,84.309387%,86.669922%);fill-opacity:1;" d="M 163.285156 284.84375 C 163.285156 287.859375 165.917969 288.910156 165.917969 291.921875 C 165.917969 294.269531 163.199219 296.269531 163.199219 298.617188 C 168.226562 299.835938 173.839844 297.140625 174.925781 291.367188 C 174.925781 291.367188 182.445312 294.308594 194.296875 292.390625 C 194.296875 292.390625 195.484375 298.65625 201.175781 299.679688 C 202.003906 299.832031 202.847656 299.9375 203.691406 299.996094 C 203.855469 295.847656 204.785156 291.96875 208.058594 288.679688 C 191.746094 290.726562 177.5625 290.984375 163.285156 284.84375 "/>
<g clip-path="url(#clip4)" clip-rule="nonzero">
<path style=" stroke:none;fill-rule:nonzero;fill:rgb(61.569214%,63.529968%,66.268921%);fill-opacity:1;" d="M 186.644531 151.765625 C 182.375 153.765625 178.964844 158.277344 177.632812 161.980469 C 174.914062 162.144531 168.347656 163.746094 165.820312 174.476562 C 162.074219 175.054688 148.917969 177.839844 137.117188 189.191406 C 134.523438 189.308594 123.824219 190.800781 116.929688 207.507812 C 113.785156 215.125 112.589844 222.488281 112.589844 229.726562 C 112.589844 239.308594 114.683594 248.671875 117.117188 258.109375 C 119.703125 268.15625 127.078125 275.046875 133.121094 278.148438 C 137.164062 280.226562 141.015625 280.820312 144.015625 280.058594 C 145.519531 281.378906 150.035156 285.09375 154.488281 286.683594 C 154.484375 286.808594 154.480469 286.886719 154.480469 287.027344 C 154.480469 289.980469 155.078125 296.269531 159.90625 298.972656 C 163.171875 300.804688 167.128906 300.953125 170.492188 299.375 C 173.101562 298.152344 174.980469 295.957031 175.925781 293.269531 C 178.570312 294.011719 184.648438 295.222656 193.191406 294.066406 C 193.949219 296.246094 195.988281 300.308594 200.910156 301.191406 C 205.585938 302.03125 209.113281 301.503906 211.695312 299.578125 C 213.910156 297.925781 215.285156 295.230469 215.863281 291.652344 C 217.957031 290.761719 223.855469 288.050781 226.90625 284.972656 C 229.703125 285.417969 238.398438 285.59375 249.765625 273.890625 C 262.8125 260.453125 264.539062 248.925781 263.621094 226.539062 C 263.125 214.324219 259.464844 204.578125 253.320312 199.089844 C 250.21875 196.320312 246.59375 194.835938 243.015625 194.847656 C 240.601562 191.253906 229.234375 175.710938 213.488281 174.84375 C 212.996094 171.5 211.285156 162.941406 206.261719 160.132812 C 204.601562 159.203125 202.742188 159.242188 200.796875 159.757812 C 200.269531 157.53125 198.730469 153.789062 194.117188 151.542969 C 191.871094 150.449219 189.285156 150.523438 186.644531 151.765625 Z M 178.863281 161.976562 C 178.859375 161.976562 178.703125 161.96875 178.652344 161.96875 C 178.722656 161.964844 178.792969 161.96875 178.863281 161.976562 Z M 137.777344 189.164062 C 137.769531 189.164062 137.730469 189.164062 137.710938 189.164062 C 137.734375 189.164062 137.757812 189.164062 137.777344 189.164062 Z M 180.148438 163.867188 C 180.917969 160.765625 184.230469 156.28125 187.9375 154.546875 C 189.742188 153.699219 191.371094 153.617188 192.777344 154.304688 C 197.773438 156.738281 198.027344 161.472656 198.03125 161.675781 C 198.054688 162.191406 198.335938 162.667969 198.777344 162.933594 C 199.21875 163.199219 199.765625 163.226562 200.230469 163.003906 C 201.984375 162.148438 203.472656 162.085938 204.773438 162.8125 C 208.625 164.964844 210.296875 173.382812 210.617188 176.449219 C 210.699219 177.230469 211.355469 177.824219 212.136719 177.824219 C 228.574219 177.824219 240.796875 197.035156 240.917969 197.230469 C 241.21875 197.710938 241.765625 197.988281 242.332031 197.945312 C 245.40625 197.710938 248.507812 198.898438 251.289062 201.382812 C 254.484375 204.238281 259.941406 211.320312 260.566406 226.664062 C 261.441406 248.121094 259.832031 259.125 247.578125 271.746094 C 235.441406 284.246094 226.949219 281.871094 226.867188 281.84375 C 226.277344 281.664062 225.621094 281.851562 225.234375 282.328125 C 222.933594 285.117188 216.308594 288.1875 213.949219 289.132812 C 213.429688 289.339844 213.066406 289.820312 213 290.378906 C 212.628906 293.578125 211.578125 295.839844 209.871094 297.117188 C 208.003906 298.507812 205.246094 298.851562 201.449219 298.171875 C 196.886719 297.351562 195.839844 292.3125 195.796875 292.097656 C 195.636719 291.289062 194.863281 290.742188 194.054688 290.875 C 182.8125 292.695312 175.546875 289.964844 175.476562 289.9375 C 175.054688 289.773438 174.578125 289.804688 174.183594 290.027344 C 173.785156 290.246094 173.507812 290.636719 173.421875 291.085938 C 172.953125 293.578125 171.453125 295.535156 169.195312 296.597656 C 166.761719 297.738281 163.769531 297.625 161.394531 296.296875 C 156.871094 293.757812 157.578125 285.839844 157.585938 285.761719 C 157.660156 285.011719 157.175781 284.316406 156.453125 284.125 C 151.539062 282.835938 145.605469 277.375 145.546875 277.320312 C 145.117188 276.921875 144.5 276.804688 143.953125 277.015625 C 141.707031 277.894531 138.179688 277.296875 134.515625 275.414062 C 129.0625 272.617188 122.414062 266.402344 120.078125 257.34375 C 115.945312 241.300781 112.808594 225.507812 119.753906 208.683594 C 126.601562 192.097656 137.207031 192.21875 137.660156 192.234375 C 138.074219 192.246094 138.488281 192.085938 138.785156 191.792969 C 151.71875 179.058594 167.019531 177.402344 167.175781 177.390625 C 167.84375 177.324219 168.394531 176.820312 168.523438 176.15625 C 170.832031 164.28125 178.167969 164.984375 178.476562 165.019531 C 179.238281 165.109375 179.960938 164.617188 180.148438 163.867188 Z M 242.210938 194.878906 C 242.175781 194.878906 242.136719 194.878906 242.097656 194.878906 C 242.136719 194.878906 242.175781 194.878906 242.210938 194.878906 Z M 145.0625 279.878906 C 144.878906 279.949219 144.6875 279.976562 144.492188 279.976562 C 144.671875 279.921875 144.894531 279.941406 145.0625 279.878906 "/>
</g>
<path style=" stroke:none;fill-rule:nonzero;fill:rgb(61.569214%,63.529968%,66.268921%);fill-opacity:1;" d="M 165.550781 175.453125 C 165.519531 175.558594 162.488281 186.210938 153.449219 193.464844 C 152.792969 193.996094 152.683594 194.960938 153.210938 195.625 C 153.738281 196.285156 154.703125 196.390625 155.363281 195.863281 C 165.195312 187.96875 168.367188 176.746094 168.496094 176.269531 C 168.722656 175.453125 168.246094 174.609375 167.433594 174.382812 C 166.617188 174.15625 165.777344 174.636719 165.550781 175.453125 "/>
<path style=" stroke:none;fill-rule:nonzero;fill:rgb(61.569214%,63.529968%,66.268921%);fill-opacity:1;" d="M 177.160156 163.199219 C 177.105469 163.484375 175.816406 170.148438 175.816406 175.734375 C 175.816406 176.582031 176.5 177.269531 177.347656 177.269531 C 178.191406 177.269531 178.875 176.582031 178.875 175.734375 C 178.875 170.449219 180.152344 163.859375 180.164062 163.792969 C 180.328125 162.960938 179.785156 162.15625 178.957031 161.992188 C 178.125 161.828125 177.324219 162.371094 177.160156 163.199219 "/>
<path style=" stroke:none;fill-rule:nonzero;fill:rgb(61.569214%,63.529968%,66.268921%);fill-opacity:1;" d="M 199.324219 160.105469 C 198.488281 160.238281 197.917969 161.023438 198.050781 161.859375 C 198.0625 161.921875 198.984375 167.878906 198.261719 172.691406 C 198.140625 173.53125 198.714844 174.3125 199.546875 174.4375 C 200.386719 174.5625 201.164062 173.984375 201.289062 173.148438 C 202.078125 167.859375 201.113281 161.640625 201.074219 161.378906 C 200.941406 160.542969 200.15625 159.972656 199.324219 160.105469 "/>
<path style=" stroke:none;fill-rule:nonzero;fill:rgb(61.569214%,63.529968%,66.268921%);fill-opacity:1;" d="M 211.941406 174.765625 C 211.105469 174.875 210.511719 175.644531 210.621094 176.484375 C 210.691406 177.035156 212.410156 190.0625 218.296875 196.238281 C 218.882812 196.851562 219.847656 196.871094 220.460938 196.285156 C 221.070312 195.699219 221.09375 194.726562 220.507812 194.113281 C 215.316406 188.667969 213.671875 176.21875 213.65625 176.09375 C 213.546875 175.253906 212.78125 174.65625 211.941406 174.765625 "/>
<path style=" stroke:none;fill-rule:nonzero;fill:rgb(61.569214%,63.529968%,66.268921%);fill-opacity:1;" d="M 241.496094 195.054688 C 240.75 195.457031 240.46875 196.382812 240.863281 197.132812 C 240.890625 197.183594 243.488281 202.144531 243.488281 206.046875 C 243.488281 206.898438 244.175781 207.585938 245.019531 207.585938 C 245.863281 207.585938 246.546875 206.898438 246.546875 206.046875 C 246.546875 201.371094 243.683594 195.917969 243.566406 195.691406 C 243.167969 194.945312 242.242188 194.660156 241.496094 195.054688 "/>
<path style=" stroke:none;fill-rule:nonzero;fill:rgb(61.569214%,63.529968%,66.268921%);fill-opacity:1;" d="M 242.625 217.109375 C 242.589844 217.210938 239.398438 227.347656 230.710938 234.449219 C 225.03125 239.09375 222.449219 243.882812 223.628906 247.582031 C 224.300781 249.6875 226.429688 252.28125 232.773438 252.691406 C 233.613281 252.742188 234.339844 252.101562 234.394531 251.257812 C 234.449219 250.410156 233.8125 249.683594 232.96875 249.628906 C 229.363281 249.394531 227.078125 248.335938 226.539062 246.648438 C 225.953125 244.796875 227.246094 241.246094 232.644531 236.828125 C 242.070312 229.121094 245.40625 218.460938 245.546875 218.011719 C 245.792969 217.199219 245.339844 216.34375 244.535156 216.09375 C 243.730469 215.84375 242.871094 216.300781 242.625 217.109375 "/>
<path style=" stroke:none;fill-rule:nonzero;fill:rgb(61.569214%,63.529968%,66.268921%);fill-opacity:1;" d="M 237.769531 243.910156 C 237.722656 243.96875 232.941406 249.941406 227.441406 254.777344 C 223.566406 258.195312 219.515625 263.71875 220.867188 268.066406 C 221.691406 270.726562 224.242188 272.324219 228.445312 272.808594 C 229.285156 272.90625 230.042969 272.304688 230.140625 271.460938 C 230.238281 270.617188 229.636719 269.859375 228.796875 269.757812 C 226.808594 269.53125 224.328125 268.890625 223.785156 267.152344 C 223.082031 264.882812 225.519531 260.554688 229.457031 257.089844 C 235.164062 252.070312 239.957031 246.082031 240.160156 245.832031 C 240.6875 245.167969 240.578125 244.203125 239.921875 243.671875 C 239.261719 243.144531 238.296875 243.25 237.769531 243.910156 "/>
<path style=" stroke:none;fill-rule:nonzero;fill:rgb(61.569214%,63.529968%,66.268921%);fill-opacity:1;" d="M 235.265625 262.871094 C 235.132812 262.941406 222.257812 270.390625 224.914062 283.613281 C 225.078125 284.445312 225.882812 284.980469 226.714844 284.8125 C 227.539062 284.644531 228.078125 283.835938 227.910156 283.003906 C 225.699219 271.992188 236.316406 265.800781 236.765625 265.546875 C 237.496094 265.125 237.757812 264.191406 237.34375 263.453125 C 236.925781 262.714844 235.996094 262.453125 235.265625 262.871094 "/>
<path style=" stroke:none;fill-rule:nonzero;fill:rgb(61.569214%,63.529968%,66.268921%);fill-opacity:1;" d="M 131.851562 207.789062 C 131.828125 208.453125 131.425781 224.160156 141.082031 232.054688 C 144.878906 235.160156 146.699219 238.425781 145.945312 240.785156 C 145.242188 243 142.253906 244.488281 137.953125 244.765625 C 137.109375 244.820312 136.46875 245.550781 136.527344 246.398438 C 136.582031 247.242188 137.308594 247.882812 138.148438 247.832031 C 143.835938 247.460938 147.742188 245.234375 148.859375 241.722656 C 149.546875 239.570312 149.695312 235.144531 143.011719 229.671875 C 134.542969 222.75 134.902344 208.035156 134.910156 207.886719 C 134.933594 207.042969 134.273438 206.332031 133.429688 206.304688 C 132.585938 206.28125 131.878906 206.945312 131.851562 207.789062 "/>
<path style=" stroke:none;fill-rule:nonzero;fill:rgb(61.569214%,63.529968%,66.268921%);fill-opacity:1;" d="M 131 238.8125 C 130.339844 239.339844 130.234375 240.304688 130.761719 240.96875 C 130.964844 241.21875 135.753906 247.207031 141.460938 252.230469 C 145.402344 255.695312 147.839844 260.019531 147.132812 262.289062 C 146.59375 264.027344 144.109375 264.667969 142.125 264.898438 C 141.285156 264.996094 140.679688 265.757812 140.78125 266.601562 C 140.875 267.441406 141.636719 268.046875 142.472656 267.949219 C 146.679688 267.464844 149.226562 265.867188 150.054688 263.207031 C 151.40625 258.855469 147.355469 253.335938 143.476562 249.917969 C 137.980469 245.082031 133.199219 239.109375 133.152344 239.050781 C 132.625 238.390625 131.660156 238.28125 131 238.8125 "/>
<path style=" stroke:none;fill-rule:nonzero;fill:rgb(61.569214%,63.529968%,66.268921%);fill-opacity:1;" d="M 133.578125 258.59375 C 133.164062 259.328125 133.421875 260.265625 134.152344 260.683594 C 134.605469 260.941406 145.222656 267.132812 143.007812 278.144531 C 142.84375 278.976562 143.378906 279.785156 144.207031 279.953125 C 145.035156 280.117188 145.839844 279.582031 146.007812 278.75 C 148.664062 265.53125 135.785156 258.082031 135.65625 258.007812 C 134.921875 257.59375 133.992188 257.851562 133.578125 258.59375 "/>
<path style=" stroke:none;fill-rule:nonzero;fill:rgb(61.569214%,63.529968%,66.268921%);fill-opacity:1;" d="M 169.214844 214.707031 C 168.488281 215.144531 168.25 216.085938 168.683594 216.8125 C 169.117188 217.542969 170.054688 217.777344 170.78125 217.347656 C 178.886719 212.488281 183.046875 218.386719 183.496094 219.074219 C 183.957031 219.785156 184.898438 219.988281 185.605469 219.527344 C 186.316406 219.070312 186.523438 218.128906 186.070312 217.417969 C 186.011719 217.324219 180.046875 208.222656 169.214844 214.707031 "/>
<path style=" stroke:none;fill-rule:nonzero;fill:rgb(61.569214%,63.529968%,66.268921%);fill-opacity:1;" d="M 180.644531 202.894531 C 179.796875 202.929688 179.140625 203.640625 179.175781 204.488281 C 179.207031 205.335938 179.917969 206 180.761719 205.960938 C 184.660156 205.808594 187.621094 206.691406 189.5625 208.578125 C 192.082031 211.019531 192.089844 214.441406 192.089844 214.476562 C 192.085938 215.316406 192.757812 216.011719 193.601562 216.023438 C 194.441406 216.03125 195.132812 215.363281 195.144531 214.515625 C 195.148438 214.320312 195.179688 209.792969 191.730469 206.40625 C 189.160156 203.890625 185.429688 202.707031 180.644531 202.894531 "/>
<path style=" stroke:none;fill-rule:nonzero;fill:rgb(61.569214%,63.529968%,66.268921%);fill-opacity:1;" d="M 168.320312 287.691406 C 167.777344 288.335938 167.855469 289.304688 168.5 289.851562 C 170.953125 291.933594 174.40625 292.816406 174.554688 292.855469 C 175.375 293.0625 176.203125 292.5625 176.40625 291.742188 C 176.613281 290.921875 176.117188 290.089844 175.296875 289.878906 C 175.269531 289.871094 172.378906 289.121094 170.476562 287.507812 C 169.832031 286.960938 168.867188 287.042969 168.320312 287.691406 "/>
<path style=" stroke:none;fill-rule:nonzero;fill:rgb(61.569214%,63.529968%,66.268921%);fill-opacity:1;" d="M 199.875 289.289062 C 197.003906 290.371094 194.074219 290.871094 194.042969 290.875 C 193.210938 291.015625 192.648438 291.808594 192.789062 292.644531 C 192.929688 293.480469 193.714844 294.046875 194.546875 293.90625 C 194.679688 293.882812 197.789062 293.355469 200.953125 292.164062 C 201.742188 291.867188 202.144531 290.984375 201.84375 290.1875 C 201.546875 289.394531 200.667969 288.992188 199.875 289.289062 "/>
<path style=" stroke:none;fill-rule:nonzero;fill:rgb(61.569214%,63.529968%,66.268921%);fill-opacity:1;" d="M 136.46875 189.8125 C 136.347656 189.980469 133.53125 193.988281 132.972656 197.71875 C 132.847656 198.558594 133.421875 199.339844 134.257812 199.464844 C 135.09375 199.59375 135.871094 199.011719 135.996094 198.175781 C 136.445312 195.175781 138.933594 191.621094 138.957031 191.585938 C 139.445312 190.894531 139.285156 189.9375 138.597656 189.449219 C 137.910156 188.957031 136.957031 189.121094 136.46875 189.8125 "/>
<path style=" stroke:none;fill-rule:nonzero;fill:rgb(94.898987%,95.289612%,96.078491%);fill-opacity:1;" d="M 248.164062 204.234375 C 248.164062 204.234375 248.832031 225.210938 238.207031 235.78125 C 227.585938 246.355469 238.519531 242.941406 243.078125 239.328125 C 247.636719 235.707031 248.203125 242.867188 241.375 249.828125 C 234.546875 256.785156 234.832031 260.625 239.660156 258.792969 C 244.488281 256.964844 244.785156 262.335938 240.480469 265.953125 C 236.171875 269.566406 239.785156 275.167969 246.347656 266.929688 C 252.914062 258.691406 257.382812 243.050781 257.25 226.167969 C 257.121094 209.28125 247.621094 199.894531 248.164062 204.234375 "/>
<path style=" stroke:none;fill-rule:nonzero;fill:rgb(94.898987%,95.289612%,96.078491%);fill-opacity:1;" d="M 131.597656 197.605469 C 131.597656 197.605469 126.839844 209.546875 131.597656 220.121094 C 136.355469 230.695312 144.507812 237.6875 141.113281 240.246094 C 137.714844 242.804688 136.183594 237.515625 130.917969 233.082031 C 125.648438 228.648438 124.800781 234.445312 128.707031 240.585938 C 132.617188 246.726562 143.832031 256.789062 141.28125 257.300781 C 138.734375 257.8125 131.9375 252.183594 129.050781 253.71875 C 126.160156 255.253906 138.730469 267.191406 136.015625 268.726562 C 133.296875 270.261719 126.160156 269.066406 121.0625 253.207031 C 115.964844 237.34375 118.171875 218.925781 122.25 211.421875 C 126.328125 203.917969 128.9375 195.746094 131.597656 197.605469 "/>
<path style=" stroke:none;fill-rule:nonzero;fill:rgb(100%,100%,100%);fill-opacity:1;" d="M 139.496094 199.140625 C 139.496094 199.140625 149.609375 197.265625 154.027344 190.957031 C 158.445312 184.644531 160.824219 181.0625 160.824219 181.0625 C 160.824219 181.0625 151.140625 183.792969 145.871094 187.886719 C 140.601562 191.980469 139.238281 196.070312 139.496094 199.140625 "/>
<path style=" stroke:none;fill-rule:nonzero;fill:rgb(100%,100%,100%);fill-opacity:1;" d="M 237.542969 199.140625 C 237.542969 199.140625 227.433594 197.265625 223.015625 190.957031 C 218.597656 184.644531 216.21875 181.0625 216.21875 181.0625 C 216.21875 181.0625 225.902344 183.792969 231.171875 187.886719 C 236.4375 191.980469 237.800781 196.070312 237.542969 199.140625 "/>
<path style=" stroke:none;fill-rule:nonzero;fill:rgb(100%,100%,100%);fill-opacity:1;" d="M 181.296875 176.5 C 181.296875 176.5 181.171875 158.847656 188.304688 156.675781 C 195.441406 154.5 196.972656 164.351562 196.972656 171.769531 C 196.972656 179.1875 190.855469 162.8125 181.296875 176.5 "/>
</g>
</svg>
